<svg width="57" height="57" viewBox="0 0 57 57" fill="none" xmlns="http://www.w3.org/2000/svg">
<path d="M33.25 19C33.25 17.7402 32.7496 16.532 31.8588 15.6412C30.968 14.7504 29.7598 14.25 28.5 14.25" stroke="#F69D93" stroke-width="4" stroke-linecap="round" stroke-linejoin="round"/>
<path d="M28.5 40.375V42.75C28.5 44.0098 27.9996 45.218 27.1088 46.1088C26.218 46.9996 25.0098 47.5 23.75 47.5H16.625C15.3652 47.5 14.157 48.0004 13.2662 48.8912C12.3754 49.782 11.875 50.9902 11.875 52.25M14.25 19C14.25 15.2207 15.7513 11.5961 18.4237 8.92373C21.0961 6.25133 24.7207 4.75 28.5 4.75C32.2793 4.75 35.9039 6.25133 38.5763 8.92373C41.2487 11.5961 42.75 15.2207 42.75 19C42.75 30.8037 36.3707 40.375 28.5 40.375C20.6293 40.375 14.25 30.8037 14.25 19Z" stroke="#F69D93" stroke-width="4" stroke-linecap="round" stroke-linejoin="round"/>
</svg>
