<svg width="57" height="57" viewBox="0 0 57 57" fill="none" xmlns="http://www.w3.org/2000/svg">
<path d="M28.5 30.875C19 30.875 16.625 22.9591 16.625 19V9.5L22.5625 14.25L28.5 7.125L34.4375 14.25L40.375 9.5V19C40.375 22.9591 38 30.875 28.5 30.875ZM28.5 30.875V49.875M28.5 49.875H30.875M28.5 49.875H26.125M30.875 49.875C44.175 49.875 47.5 38.7909 47.5 33.25C34.2 33.25 30.875 44.3341 30.875 49.875ZM26.125 49.875C12.825 49.875 9.5 38.7909 9.5 33.25C22.8 33.25 26.125 44.3341 26.125 49.875Z" stroke="#F69D93" stroke-width="3.5" stroke-linecap="round" stroke-linejoin="round"/>
</svg>
