<svg width="57" height="57" viewBox="0 0 57 57" fill="none" xmlns="http://www.w3.org/2000/svg">
<path d="M3.5625 17.8125C3.5625 15.9228 4.31317 14.1106 5.64936 12.7744C6.98556 11.4382 8.79783 10.6875 10.6875 10.6875H46.3125C48.2022 10.6875 50.0144 11.4382 51.3506 12.7744C52.6868 14.1106 53.4375 15.9228 53.4375 17.8125V39.1875C53.4375 41.0772 52.6868 42.8894 51.3506 44.2256C50.0144 45.5618 48.2022 46.3125 46.3125 46.3125H10.6875C8.79783 46.3125 6.98556 45.5618 5.64936 44.2256C4.31317 42.8894 3.5625 41.0772 3.5625 39.1875V17.8125ZM46.3125 42.75C47.2573 42.75 48.1635 42.3747 48.8316 41.7066C49.4997 41.0385 49.875 40.1323 49.875 39.1875V28.5H23.8937L27.9799 32.5826C28.3143 32.9171 28.5022 33.3707 28.5022 33.8438C28.5022 34.3168 28.3143 34.7704 27.9799 35.1049C27.6454 35.4393 27.1918 35.6272 26.7188 35.6272C26.2457 35.6272 25.7921 35.4393 25.4576 35.1049L21.375 31.0187V42.75H46.3125ZM28.1972 24.9375H49.875V17.8125C49.875 16.8677 49.4997 15.9615 48.8316 15.2934C48.1635 14.6253 47.2573 14.25 46.3125 14.25H21.375V18.1153C22.3266 17.778 23.3543 17.7171 24.339 17.9397C25.3238 18.1624 26.2253 18.6594 26.9392 19.3733C27.6531 20.0872 28.1501 20.9887 28.3728 21.9735C28.5954 22.9582 28.5345 23.9859 28.1972 24.9375V24.9375ZM23.1562 24.9375C23.5085 24.9375 23.8529 24.833 24.1459 24.6373C24.4388 24.4416 24.6671 24.1634 24.8019 23.8379C24.9367 23.5124 24.972 23.1543 24.9033 22.8087C24.8345 22.4632 24.6649 22.1458 24.4158 21.8967C24.1667 21.6476 23.8493 21.478 23.5038 21.4092C23.1582 21.3405 22.8001 21.3758 22.4746 21.5106C22.1491 21.6454 21.8709 21.8737 21.6752 22.1666C21.4795 22.4596 21.375 22.804 21.375 23.1562V24.9375H23.1562ZM17.8125 18.1153V14.25H10.6875C9.74267 14.25 8.83653 14.6253 8.16843 15.2934C7.50033 15.9615 7.125 16.8677 7.125 17.8125V24.9375H10.9903C10.653 23.9859 10.5921 22.9582 10.8147 21.9735C11.0374 20.9887 11.5344 20.0872 12.2483 19.3733C12.9622 18.6594 13.8637 18.1624 14.8485 17.9397C15.8332 17.7171 16.8609 17.778 17.8125 18.1153ZM16.0312 24.9375H17.8125V23.1562C17.8125 22.804 17.708 22.4596 17.5123 22.1666C17.3166 21.8737 17.0384 21.6454 16.7129 21.5106C16.3874 21.3758 16.0293 21.3405 15.6837 21.4092C15.3382 21.478 15.0208 21.6476 14.7717 21.8967C14.5226 22.1458 14.353 22.4632 14.2842 22.8087C14.2155 23.1543 14.2508 23.5124 14.3856 23.8379C14.5204 24.1634 14.7487 24.4416 15.0416 24.6373C15.3346 24.833 15.679 24.9375 16.0312 24.9375ZM15.2938 28.5H7.125V39.1875C7.125 40.1323 7.50033 41.0385 8.16843 41.7066C8.83653 42.3747 9.74267 42.75 10.6875 42.75H17.8125V31.0187L13.7299 35.1049C13.5643 35.2705 13.3677 35.4019 13.1513 35.4915C12.9349 35.5811 12.703 35.6272 12.4688 35.6272C12.2345 35.6272 12.0026 35.5811 11.7862 35.4915C11.5698 35.4019 11.3732 35.2705 11.2076 35.1049C11.042 34.9393 10.9106 34.7427 10.821 34.5263C10.7314 34.3099 10.6853 34.078 10.6853 33.8438C10.6853 33.6095 10.7314 33.3776 10.821 33.1612C10.9106 32.9448 11.042 32.7482 11.2076 32.5826L15.2938 28.5Z" fill="#F69D93"/>
</svg>
