<svg width="57" height="57" viewBox="0 0 57 57" fill="none" xmlns="http://www.w3.org/2000/svg">
<path d="M28.5 40.0781C34.8944 40.0781 40.0781 34.8944 40.0781 28.5C40.0781 22.1056 34.8944 16.9219 28.5 16.9219C22.1056 16.9219 16.9219 22.1056 16.9219 28.5C16.9219 34.8944 22.1056 40.0781 28.5 40.0781Z" stroke="#F69D93" stroke-width="4" stroke-linecap="round" stroke-linejoin="round"/>
<path d="M25.8281 40.0781C25.8281 43.6406 24.0469 48.9844 20.4844 50.7656C17.8125 50.7656 15.1406 47.2031 13.3594 43.6406C9.79688 41.8594 6.23438 38.2969 6.23438 36.5156C8.01562 32.9531 13.3594 31.1719 16.9219 31.1719M31.1719 16.9219C31.1719 13.3594 32.9531 8.01562 36.5156 6.23438C39.1875 6.23438 41.8594 9.79688 43.6406 13.3594C47.2031 15.1406 50.7656 18.7031 50.7656 20.4844C48.9844 24.0469 43.6406 25.8281 40.0781 25.8281" stroke="#F69D93" stroke-width="4" stroke-linecap="round" stroke-linejoin="round"/>
</svg>
