<svg width="57" height="57" viewBox="0 0 57 57" fill="none" xmlns="http://www.w3.org/2000/svg">
<path d="M48.0938 7.125H1.78125V42.75H48.0938V7.125ZM44.5312 39.1875H5.34375V10.6875H44.5312V39.1875Z" fill="#F69D93"/>
<path d="M51.6562 16.0312V46.3125H10.6875V49.875H55.2188V16.0312H51.6562Z" fill="#F69D93"/>
<path d="M24.9375 33.6723C29.3572 33.6723 32.9531 29.7606 32.9531 24.9524C32.9531 20.1443 29.3572 16.2325 24.9375 16.2325C20.5178 16.2325 16.9219 20.1442 16.9219 24.9524C16.9219 29.7607 20.5178 33.6723 24.9375 33.6723ZM24.9375 19.795C27.393 19.795 29.3906 22.1087 29.3906 24.9524C29.3906 27.7962 27.393 30.1098 24.9375 30.1098C22.482 30.1098 20.4844 27.7962 20.4844 24.9524C20.4844 22.1087 22.482 19.795 24.9375 19.795ZM8.90625 15.1406H12.4688V34.7344H8.90625V15.1406ZM37.4062 15.1406H40.9688V34.7344H37.4062V15.1406Z" fill="#F69D93"/>
</svg>
