<svg width="35" height="35" viewBox="0 0 35 35" fill="none" xmlns="http://www.w3.org/2000/svg">
<path d="M17.5 13.1249C18.3021 13.1249 18.9584 12.4687 18.9584 11.6666V8.74992H21.875C22.6771 8.74992 23.3334 8.09367 23.3334 7.29159C23.3334 6.4895 22.6771 5.83325 21.875 5.83325H18.9584V2.91659C18.9584 2.1145 18.3021 1.45825 17.5 1.45825C16.698 1.45825 16.0417 2.1145 16.0417 2.91659V5.83325H13.125C12.323 5.83325 11.6667 6.4895 11.6667 7.29159C11.6667 8.09367 12.323 8.74992 13.125 8.74992H16.0417V11.6666C16.0417 12.4687 16.698 13.1249 17.5 13.1249ZM10.2084 26.2499C8.60421 26.2499 7.30629 27.5624 7.30629 29.1666C7.30629 30.7708 8.60421 32.0833 10.2084 32.0833C11.8125 32.0833 13.125 30.7708 13.125 29.1666C13.125 27.5624 11.8125 26.2499 10.2084 26.2499ZM24.7917 26.2499C23.1875 26.2499 21.8896 27.5624 21.8896 29.1666C21.8896 30.7708 23.1875 32.0833 24.7917 32.0833C26.3959 32.0833 27.7084 30.7708 27.7084 29.1666C27.7084 27.5624 26.3959 26.2499 24.7917 26.2499ZM11.8125 18.9583H22.6771C23.7709 18.9583 24.7334 18.3603 25.2292 17.4562L29.9542 8.502C30.1324 8.1648 30.1711 7.77112 30.062 7.40567C29.9529 7.04021 29.7048 6.73217 29.3709 6.54784C29.2018 6.45521 29.0159 6.39718 28.8241 6.37714C28.6323 6.3571 28.4385 6.37544 28.2539 6.43109C28.0693 6.48675 27.8976 6.57861 27.7488 6.7013C27.6001 6.824 27.4773 6.97509 27.3875 7.14575L22.6771 16.0416H12.4396L6.22712 2.91659H2.91671C2.11462 2.91659 1.45837 3.57284 1.45837 4.37492C1.45837 5.177 2.11462 5.83325 2.91671 5.83325H4.37504L9.62504 16.902L7.65629 20.4603C6.59171 22.4145 7.99171 24.7916 10.2084 24.7916H26.25C27.0521 24.7916 27.7084 24.1353 27.7084 23.3333C27.7084 22.5312 27.0521 21.8749 26.25 21.8749H10.2084L11.8125 18.9583Z" fill="white"/>
</svg>
