<svg width="30" height="30" viewBox="0 0 30 30" fill="none" xmlns="http://www.w3.org/2000/svg">
<path d="M17.2875 23.75C17.1007 23.7506 16.9162 23.7094 16.7475 23.6294C16.5788 23.5493 16.4301 23.4325 16.3125 23.2875L10.275 15.7875C10.0911 15.5638 9.9906 15.2833 9.9906 14.9937C9.9906 14.7042 10.0911 14.4236 10.275 14.2L16.525 6.69998C16.7371 6.44471 17.042 6.28418 17.3726 6.2537C17.7031 6.22323 18.0322 6.32531 18.2875 6.53748C18.5427 6.74965 18.7033 7.05454 18.7337 7.38507C18.7642 7.71561 18.6621 8.04471 18.45 8.29998L12.8625 15L18.2625 21.7C18.4153 21.8835 18.5124 22.1069 18.5423 22.3438C18.5721 22.5808 18.5335 22.8213 18.4309 23.0369C18.3283 23.2526 18.1661 23.4344 17.9635 23.5607C17.7608 23.6871 17.5263 23.7528 17.2875 23.75Z" fill="black"/>
</svg>
