<svg width="25" height="25" viewBox="0 0 25 25" fill="none" xmlns="http://www.w3.org/2000/svg">
<path d="M15.9722 0.0112177C16.7819 0.0111309 17.5766 0.206941 18.2732 0.57813C18.9698 0.949318 19.5426 1.48222 19.9316 2.121C20.3205 2.75977 20.5114 3.48091 20.4841 4.20883C20.4568 4.93676 20.2123 5.64468 19.7764 6.25841H23.2639C24.2222 6.25841 25 6.9581 25 7.82021V12.1932C25.0001 12.5533 24.8619 12.9023 24.6088 13.1812C24.3557 13.4601 24.0033 13.6518 23.6111 13.7238V20.9393C23.6112 21.9765 23.1701 22.9744 22.3782 23.7284C21.5864 24.4823 20.5039 24.935 19.3528 24.9938L19.0972 25H5.90278C4.74981 25.0001 3.64052 24.6032 2.80246 23.8909C1.9644 23.1786 1.46111 22.2048 1.39583 21.1692L1.38889 20.9393V13.7238C0.597222 13.5789 0 12.9492 0 12.1932V7.82021C0 6.9581 0.777778 6.25841 1.73611 6.25841H5.22361C4.60058 5.38762 4.37092 4.3356 4.5816 3.31752C4.79228 2.29944 5.42738 1.39224 6.35699 0.78147C7.28661 0.170699 8.4405 -0.0974868 9.58265 0.0317661C10.7248 0.161019 11.7689 0.677943 12.5014 1.47681C12.9242 1.01765 13.4546 0.648188 14.0546 0.394833C14.6546 0.141478 15.3094 0.0104851 15.9722 0.0112177ZM11.4583 13.7538H3.47222V20.9393C3.47224 21.4881 3.70163 22.0167 4.11483 22.4204C4.52804 22.8241 5.09486 23.0732 5.70278 23.1183L5.90278 23.1258H11.4583V13.7538ZM21.5278 13.7538H13.5417V23.1258H19.0972C19.7074 23.1258 20.2953 22.9193 20.744 22.5473C21.1928 22.1753 21.4696 21.6651 21.5194 21.118L21.5278 20.9393V13.7538ZM11.4583 8.13257H2.08333V11.8809L11.4583 11.8796V8.13257ZM22.9167 11.8809V8.13257H13.5417V11.8796L22.9167 11.8809ZM15.9722 1.88538C15.3276 1.88538 14.7094 2.11574 14.2536 2.52579C13.7977 2.93584 13.5417 3.49199 13.5417 4.07189V6.25716H16.0056L16.1722 6.25092C16.7972 6.20424 17.3779 5.94208 17.793 5.51921C18.2081 5.09635 18.4254 4.54552 18.3996 3.98186C18.3738 3.41819 18.1068 2.88532 17.6544 2.49462C17.2021 2.10392 16.5993 1.88563 15.9722 1.88538ZM9.02778 1.88538C8.40067 1.88563 7.79794 2.10392 7.34557 2.49462C6.8932 2.88532 6.6262 3.41819 6.60038 3.98186C6.57455 4.54552 6.79191 5.09635 7.20701 5.51921C7.6221 5.94208 8.20282 6.20424 8.82778 6.25092L8.99444 6.25716H11.4583V4.07189L11.45 3.89198C11.3998 3.3451 11.1229 2.83519 10.6742 2.46347C10.2254 2.09175 9.63776 1.8854 9.02778 1.88538Z" fill="#F69D93"/>
</svg>
