<svg width="30" height="30" viewBox="0 0 30 30" fill="none" xmlns="http://www.w3.org/2000/svg">
<path d="M13.6725 3.21001C14.4562 2.61001 15.5456 2.61001 16.3294 3.21001L25.6331 10.3219C26.8181 11.2275 26.1825 13.1175 24.6938 13.125H5.30625C3.81937 13.1175 3.18187 11.2275 4.36875 10.3219L13.6725 3.21001V3.21001ZM15 9.84376C15.373 9.84376 15.7306 9.6956 15.9944 9.43188C16.2581 9.16816 16.4062 8.81047 16.4062 8.43751C16.4062 8.06455 16.2581 7.70686 15.9944 7.44314C15.7306 7.17942 15.373 7.03126 15 7.03126C14.627 7.03126 14.2694 7.17942 14.0056 7.44314C13.7419 7.70686 13.5938 8.06455 13.5938 8.43751C13.5938 8.81047 13.7419 9.16816 14.0056 9.43188C14.2694 9.6956 14.627 9.84376 15 9.84376ZM6.5625 15V20.625H9.375V15H6.5625ZM11.25 15V20.625H14.0625V15H11.25ZM15.9375 15V20.625H18.75V15H15.9375ZM20.625 15V20.625H23.4375V15H20.625ZM3.75 24.8438C3.75 23.55 4.8 22.5 6.09375 22.5H23.9062C25.2 22.5 26.25 23.55 26.25 24.8438V25.3125C26.25 25.5612 26.1512 25.7996 25.9754 25.9754C25.7996 26.1512 25.5611 26.25 25.3125 26.25H4.6875C4.43886 26.25 4.2004 26.1512 4.02459 25.9754C3.84877 25.7996 3.75 25.5612 3.75 25.3125V24.8438Z" fill="#9F9F9F"/>
</svg>
