<svg width="30" height="30" viewBox="0 0 30 30" fill="none" xmlns="http://www.w3.org/2000/svg">
<g clip-path="url(#clip0_529_48)">
<path d="M9.91154 16.875H7.2334C6.79151 16.875 6.42996 16.5586 6.42996 16.1719V13.8281C6.42996 13.4414 6.79151 13.125 7.2334 13.125H9.91154C10.3534 13.125 10.715 13.4414 10.715 13.8281V16.1719C10.715 16.5586 10.3534 16.875 9.91154 16.875ZM17.1425 16.1719V13.8281C17.1425 13.4414 16.781 13.125 16.3391 13.125H13.6609C13.219 13.125 12.8575 13.4414 12.8575 13.8281V16.1719C12.8575 16.5586 13.219 16.875 13.6609 16.875H16.3391C16.781 16.875 17.1425 16.5586 17.1425 16.1719ZM23.57 16.1719V13.8281C23.57 13.4414 23.2085 13.125 22.7666 13.125H20.0884C19.6466 13.125 19.285 13.4414 19.285 13.8281V16.1719C19.285 16.5586 19.6466 16.875 20.0884 16.875H22.7666C23.2085 16.875 23.57 16.5586 23.57 16.1719ZM17.1425 21.7969V19.4531C17.1425 19.0664 16.781 18.75 16.3391 18.75H13.6609C13.219 18.75 12.8575 19.0664 12.8575 19.4531V21.7969C12.8575 22.1836 13.219 22.5 13.6609 22.5H16.3391C16.781 22.5 17.1425 22.1836 17.1425 21.7969ZM10.715 21.7969V19.4531C10.715 19.0664 10.3534 18.75 9.91154 18.75H7.2334C6.79151 18.75 6.42996 19.0664 6.42996 19.4531V21.7969C6.42996 22.1836 6.79151 22.5 7.2334 22.5H9.91154C10.3534 22.5 10.715 22.1836 10.715 21.7969ZM23.57 21.7969V19.4531C23.57 19.0664 23.2085 18.75 22.7666 18.75H20.0884C19.6466 18.75 19.285 19.0664 19.285 19.4531V21.7969C19.285 22.1836 19.6466 22.5 20.0884 22.5H22.7666C23.2085 22.5 23.57 22.1836 23.57 21.7969ZM29.9975 6.5625V27.1875C29.9975 28.7402 28.558 30 26.7838 30H3.2162C1.44194 30 0.00244141 28.7402 0.00244141 27.1875V6.5625C0.00244141 5.00977 1.44194 3.75 3.2162 3.75H6.42996V0.703125C6.42996 0.316406 6.79151 0 7.2334 0H9.91154C10.3534 0 10.715 0.316406 10.715 0.703125V3.75H19.285V0.703125C19.285 0.316406 19.6466 0 20.0884 0H22.7666C23.2085 0 23.57 0.316406 23.57 0.703125V3.75H26.7838C28.558 3.75 29.9975 5.00977 29.9975 6.5625ZM26.7838 26.8359V9.375H3.2162V26.8359C3.2162 27.0293 3.39698 27.1875 3.61792 27.1875H26.3821C26.603 27.1875 26.7838 27.0293 26.7838 26.8359Z" fill="#C4C4C4"/>
</g>
<defs>
<clipPath id="clip0_529_48">
<rect width="30" height="30" fill="white"/>
</clipPath>
</defs>
</svg>
