<svg width="45" height="45" viewBox="0 0 45 45" fill="none" xmlns="http://www.w3.org/2000/svg">
<path d="M40.5571 30.8452H14.3877L15.7017 28.1689L37.5337 28.1294C38.272 28.1294 38.9048 27.6021 39.0366 26.8726L42.0601 9.94922C42.1392 9.50537 42.0205 9.04834 41.7305 8.70117C41.5871 8.53031 41.4083 8.39268 41.2065 8.29783C41.0046 8.20297 40.7845 8.15316 40.5615 8.15186L12.7881 8.05957L12.5508 6.94336C12.4014 6.23145 11.7598 5.71289 11.0303 5.71289H4.24072C3.8293 5.71289 3.43473 5.87633 3.14381 6.16725C2.85289 6.45817 2.68945 6.85274 2.68945 7.26416C2.68945 7.67558 2.85289 8.07015 3.14381 8.36107C3.43473 8.65199 3.8293 8.81543 4.24072 8.81543H9.77344L10.8105 13.7461L13.3638 26.1079L10.0767 31.4736C9.90596 31.704 9.80314 31.9776 9.77984 32.2634C9.75654 32.5492 9.81369 32.8358 9.94482 33.0908C10.2085 33.6138 10.7402 33.9434 11.3291 33.9434H14.0889C13.5005 34.7248 13.1827 35.6766 13.1836 36.6548C13.1836 39.1421 15.2051 41.1636 17.6924 41.1636C20.1797 41.1636 22.2012 39.1421 22.2012 36.6548C22.2012 35.6748 21.876 34.7212 21.2959 33.9434H28.3755C27.7871 34.7248 27.4694 35.6766 27.4702 36.6548C27.4702 39.1421 29.4917 41.1636 31.979 41.1636C34.4663 41.1636 36.4878 39.1421 36.4878 36.6548C36.4878 35.6748 36.1626 34.7212 35.5825 33.9434H40.5615C41.4141 33.9434 42.1128 33.249 42.1128 32.3921C42.1102 31.9811 41.9452 31.5878 41.6538 31.298C41.3624 31.0082 40.9681 30.8454 40.5571 30.8452V30.8452ZM13.4341 11.1182L38.7378 11.2017L36.2593 25.0796L16.3828 25.1147L13.4341 11.1182ZM17.6924 38.0435C16.9277 38.0435 16.3037 37.4194 16.3037 36.6548C16.3037 35.8901 16.9277 35.2661 17.6924 35.2661C18.457 35.2661 19.0811 35.8901 19.0811 36.6548C19.0811 37.0231 18.9347 37.3763 18.6743 37.6367C18.4139 37.8972 18.0607 38.0435 17.6924 38.0435V38.0435ZM31.979 38.0435C31.2144 38.0435 30.5903 37.4194 30.5903 36.6548C30.5903 35.8901 31.2144 35.2661 31.979 35.2661C32.7437 35.2661 33.3677 35.8901 33.3677 36.6548C33.3677 37.0231 33.2214 37.3763 32.9609 37.6367C32.7005 37.8972 32.3473 38.0435 31.979 38.0435V38.0435Z" fill="white"/>
</svg>
