<svg width="45" height="45" viewBox="0 0 45 45" fill="none" xmlns="http://www.w3.org/2000/svg">
<path d="M13.125 41.25C12.0937 41.25 11.2112 40.8831 10.4775 40.1494C9.7425 39.4144 9.375 38.5313 9.375 37.5C9.375 36.4687 9.7425 35.5856 10.4775 34.8506C11.2112 34.1169 12.0937 33.75 13.125 33.75C14.1563 33.75 15.0387 34.1169 15.7725 34.8506C16.5075 35.5856 16.875 36.4687 16.875 37.5C16.875 38.5313 16.5075 39.4144 15.7725 40.1494C15.0387 40.8831 14.1563 41.25 13.125 41.25ZM31.875 41.25C30.8437 41.25 29.9613 40.8831 29.2275 40.1494C28.4925 39.4144 28.125 38.5313 28.125 37.5C28.125 36.4687 28.4925 35.5856 29.2275 34.8506C29.9613 34.1169 30.8437 33.75 31.875 33.75C32.9063 33.75 33.7894 34.1169 34.5244 34.8506C35.2581 35.5856 35.625 36.4687 35.625 37.5C35.625 38.5313 35.2581 39.4144 34.5244 40.1494C33.7894 40.8831 32.9063 41.25 31.875 41.25ZM11.5313 11.25L16.0313 20.625H29.1563L34.3125 11.25H11.5313ZM13.125 31.875C11.7188 31.875 10.6563 31.2575 9.9375 30.0225C9.21875 28.7887 9.1875 27.5625 9.84375 26.3438L12.375 21.75L5.625 7.5H3.70313C3.17188 7.5 2.73437 7.32 2.39062 6.96C2.04687 6.60125 1.875 6.15625 1.875 5.625C1.875 5.09375 2.055 4.64812 2.415 4.28812C2.77375 3.92937 3.21875 3.75 3.75 3.75H6.79688C7.14063 3.75 7.46875 3.84375 7.78125 4.03125C8.09375 4.21875 8.32813 4.48438 8.48438 4.82813L9.75 7.5H37.4063C38.25 7.5 38.8281 7.8125 39.1406 8.4375C39.4531 9.0625 39.4375 9.71875 39.0938 10.4063L32.4375 22.4062C32.0937 23.0312 31.6406 23.5156 31.0781 23.8594C30.5156 24.2031 29.875 24.375 29.1563 24.375H15.1875L13.125 28.125H33.7969C34.3281 28.125 34.7656 28.3044 35.1094 28.6631C35.4531 29.0231 35.625 29.4688 35.625 30C35.625 30.5312 35.445 30.9762 35.085 31.335C34.7262 31.695 34.2812 31.875 33.75 31.875H13.125ZM16.0313 20.625H29.1563H16.0313Z" fill="#C7C7C7"/>
</svg>
