<svg width="35" height="35" viewBox="0 0 35 35" fill="none" xmlns="http://www.w3.org/2000/svg">
<path d="M10.2083 32.0834C9.40617 32.0834 8.71978 31.7981 8.14909 31.2274C7.57742 30.6557 7.29159 29.9688 7.29159 29.1667C7.29159 28.3647 7.57742 27.6778 8.14909 27.1061C8.71978 26.5354 9.40617 26.2501 10.2083 26.2501C11.0103 26.2501 11.6967 26.5354 12.2674 27.1061C12.8391 27.6778 13.1249 28.3647 13.1249 29.1667C13.1249 29.9688 12.8391 30.6557 12.2674 31.2274C11.6967 31.7981 11.0103 32.0834 10.2083 32.0834ZM24.7916 32.0834C23.9895 32.0834 23.3031 31.7981 22.7324 31.2274C22.1608 30.6557 21.8749 29.9688 21.8749 29.1667C21.8749 28.3647 22.1608 27.6778 22.7324 27.1061C23.3031 26.5354 23.9895 26.2501 24.7916 26.2501C25.5937 26.2501 26.2805 26.5354 26.8522 27.1061C27.4229 27.6778 27.7083 28.3647 27.7083 29.1667C27.7083 29.9688 27.4229 30.6557 26.8522 31.2274C26.2805 31.7981 25.5937 32.0834 24.7916 32.0834ZM16.4791 13.5626C16.2117 13.2952 16.078 12.9549 16.078 12.5417C16.078 12.1286 16.2117 11.7883 16.4791 11.5209L17.7551 10.2084H13.1249C12.7117 10.2084 12.3656 10.0689 12.0866 9.78987C11.8066 9.50987 11.6666 9.16328 11.6666 8.75008C11.6666 8.33689 11.8066 7.99029 12.0866 7.71029C12.3656 7.43126 12.7117 7.29175 13.1249 7.29175H17.7551L16.4426 5.97925C16.151 5.68758 16.0114 5.3473 16.0241 4.95841C16.0358 4.56953 16.1874 4.22925 16.4791 3.93758C16.7708 3.67022 17.111 3.53022 17.4999 3.51758C17.8888 3.50591 18.2291 3.64591 18.5208 3.93758L22.3124 7.72925C22.4583 7.87508 22.5618 8.03307 22.623 8.20321C22.6833 8.37335 22.7135 8.55564 22.7135 8.75008C22.7135 8.94453 22.6833 9.12682 22.623 9.29696C22.5618 9.4671 22.4583 9.62508 22.3124 9.77091L18.5208 13.5626C18.2534 13.8299 17.9194 13.9695 17.5189 13.9811C17.1173 13.9938 16.7708 13.8542 16.4791 13.5626ZM10.2083 24.7917C9.0902 24.7917 8.24582 24.3115 7.67513 23.3509C7.10346 22.3913 7.09714 21.4376 7.65617 20.4897L9.62492 16.9167L4.37492 5.83341H2.91659C2.50339 5.83341 2.15728 5.69341 1.87825 5.41341C1.59825 5.13439 1.45825 4.78828 1.45825 4.37508C1.45825 3.96189 1.59825 3.61529 1.87825 3.33529C2.15728 3.05626 2.50339 2.91675 2.91659 2.91675H5.28638C5.55374 2.91675 5.80895 2.98966 6.052 3.1355C6.29506 3.28133 6.47735 3.48793 6.59888 3.75529L12.4687 16.0417H22.677L27.8905 6.59904C28.0121 6.35598 28.1885 6.16737 28.4199 6.03321C28.6503 5.90001 28.8992 5.83341 29.1666 5.83341C29.7256 5.83341 30.1451 6.07647 30.4251 6.56258C30.7042 7.04869 30.71 7.5348 30.4426 8.02092L25.2291 17.4272C24.9617 17.9133 24.6093 18.29 24.1718 18.5574C23.7343 18.8247 23.236 18.9584 22.677 18.9584H11.8124L10.2083 21.8751H26.2499C26.6631 21.8751 27.0092 22.0146 27.2883 22.2936C27.5683 22.5736 27.7083 22.9202 27.7083 23.3334C27.7083 23.7466 27.5683 24.0927 27.2883 24.3717C27.0092 24.6517 26.6631 24.7917 26.2499 24.7917H10.2083Z" fill="white"/>
</svg>
