<svg width="30" height="30" viewBox="0 0 30 30" fill="none" xmlns="http://www.w3.org/2000/svg">
<path d="M26.25 16.25V10C26.25 9.33696 25.9866 8.70107 25.5178 8.23223C25.0489 7.76339 24.413 7.5 23.75 7.5H6.25C5.58696 7.5 4.95107 7.76339 4.48223 8.23223C4.01339 8.70107 3.75 9.33696 3.75 10V17.5C3.75 18.163 4.01339 18.7989 4.48223 19.2678C4.95107 19.7366 5.58696 20 6.25 20H15M18.125 23.125L20.625 25.625L25.625 20.625M15 13.7625L15.0125 13.7487M20 13.7625L20.0125 13.7487M10 13.7625L10.0125 13.7487" stroke="#9F9F9F" stroke-width="2.4" stroke-linecap="round" stroke-linejoin="round"/>
</svg>
