<svg width="30" height="30" viewBox="0 0 30 30" fill="none" xmlns="http://www.w3.org/2000/svg">
<path d="M15 28.6875C14.6458 28.6875 14.3492 28.5679 14.11 28.3288C13.87 28.0888 13.75 27.7917 13.75 27.4375V26.1875C11.1458 25.8958 8.91167 24.8179 7.0475 22.9538C5.1825 21.0888 4.10417 18.8542 3.8125 16.25H2.5625C2.20833 16.25 1.91125 16.13 1.67125 15.89C1.43208 15.6508 1.3125 15.3542 1.3125 15C1.3125 14.6458 1.43208 14.3487 1.67125 14.1087C1.91125 13.8696 2.20833 13.75 2.5625 13.75H3.8125C4.10417 11.1458 5.1825 8.91125 7.0475 7.04625C8.91167 5.18208 11.1458 4.10417 13.75 3.8125V2.5625C13.75 2.20833 13.87 1.91125 14.11 1.67125C14.3492 1.43208 14.6458 1.3125 15 1.3125C15.3542 1.3125 15.6513 1.43208 15.8913 1.67125C16.1304 1.91125 16.25 2.20833 16.25 2.5625V3.8125C18.8542 4.10417 21.0888 5.18208 22.9538 7.04625C24.8179 8.91125 25.8958 11.1458 26.1875 13.75H27.4375C27.7917 13.75 28.0888 13.8696 28.3288 14.1087C28.5679 14.3487 28.6875 14.6458 28.6875 15C28.6875 15.3542 28.5679 15.6508 28.3288 15.89C28.0888 16.13 27.7917 16.25 27.4375 16.25H26.1875C25.8958 18.8542 24.8179 21.0888 22.9538 22.9538C21.0888 24.8179 18.8542 25.8958 16.25 26.1875V27.4375C16.25 27.7917 16.1304 28.0888 15.8913 28.3288C15.6513 28.5679 15.3542 28.6875 15 28.6875ZM15 23.75C17.4167 23.75 19.4792 22.8958 21.1875 21.1875C22.8958 19.4792 23.75 17.4167 23.75 15C23.75 12.5833 22.8958 10.5208 21.1875 8.8125C19.4792 7.10417 17.4167 6.25 15 6.25C12.5833 6.25 10.5208 7.10417 8.8125 8.8125C7.10417 10.5208 6.25 12.5833 6.25 15C6.25 17.4167 7.10417 19.4792 8.8125 21.1875C10.5208 22.8958 12.5833 23.75 15 23.75ZM15 20C13.625 20 12.4479 19.5104 11.4688 18.5312C10.4896 17.5521 10 16.375 10 15C10 13.625 10.4896 12.4479 11.4688 11.4688C12.4479 10.4896 13.625 10 15 10C16.375 10 17.5521 10.4896 18.5312 11.4688C19.5104 12.4479 20 13.625 20 15C20 16.375 19.5104 17.5521 18.5312 18.5312C17.5521 19.5104 16.375 20 15 20Z" fill="#F69D93"/>
</svg>
