<svg width="30" height="30" viewBox="0 0 30 30" fill="none" xmlns="http://www.w3.org/2000/svg">
<path d="M14.5 20.0859C14.2917 20.0859 14.0964 20.0531 13.9141 19.9875C13.7318 19.9229 13.5625 19.8125 13.4063 19.6563L7.78125 14.0312C7.49479 13.7448 7.35156 13.3802 7.35156 12.9375C7.35156 12.4948 7.49479 12.1302 7.78125 11.8438C8.06771 11.5573 8.43854 11.4073 8.89375 11.3938C9.35 11.3813 9.72135 11.5182 10.0078 11.8047L12.9375 14.7344V3.5625C12.9375 3.11979 13.0875 2.74844 13.3875 2.44844C13.6865 2.14948 14.0573 2 14.5 2C14.9427 2 15.3141 2.14948 15.6141 2.44844C15.913 2.74844 16.0625 3.11979 16.0625 3.5625V14.7344L18.9922 11.8047C19.2786 11.5182 19.65 11.3813 20.1063 11.3938C20.5615 11.4073 20.9323 11.5573 21.2187 11.8438C21.5052 12.1302 21.6484 12.4948 21.6484 12.9375C21.6484 13.3802 21.5052 13.7448 21.2187 14.0312L15.5937 19.6563C15.4375 19.8125 15.2682 19.9229 15.0859 19.9875C14.9036 20.0531 14.7083 20.0859 14.5 20.0859ZM5.125 27C4.26562 27 3.53021 26.6943 2.91875 26.0828C2.30625 25.4703 2 24.7344 2 23.875V20.75C2 20.3073 2.14948 19.9359 2.44844 19.6359C2.74844 19.337 3.11979 19.1875 3.5625 19.1875C4.00521 19.1875 4.37656 19.337 4.67656 19.6359C4.97552 19.9359 5.125 20.3073 5.125 20.75V23.875H23.875V20.75C23.875 20.3073 24.025 19.9359 24.325 19.6359C24.624 19.337 24.9948 19.1875 25.4375 19.1875C25.8802 19.1875 26.251 19.337 26.55 19.6359C26.85 19.9359 27 20.3073 27 20.75V23.875C27 24.7344 26.6943 25.4703 26.0828 26.0828C25.4703 26.6943 24.7344 27 23.875 27H5.125Z" fill="#6C6C6C"/>
</svg>
