<svg width="25" height="25" viewBox="0 0 25 25" fill="none" xmlns="http://www.w3.org/2000/svg">
<path d="M12.5 9.38017C13.6051 9.38017 14.6649 9.81915 15.4463 10.6006C16.2277 11.382 16.6667 12.4418 16.6667 13.5468C16.6667 14.6519 16.2277 15.7117 15.4463 16.4931C14.6649 17.2745 13.6051 17.7135 12.5 17.7135C11.3949 17.7135 10.3351 17.2745 9.55373 16.4931C8.77233 15.7117 8.33334 14.6519 8.33334 13.5468C8.33334 12.4418 8.77233 11.382 9.55373 10.6006C10.3351 9.81915 11.3949 9.38017 12.5 9.38017V9.38017ZM12.5 10.9427C11.8093 10.9427 11.147 11.217 10.6586 11.7054C10.1702 12.1938 9.89584 12.8562 9.89584 13.5468C9.89584 14.2375 10.1702 14.8999 10.6586 15.3883C11.147 15.8766 11.8093 16.151 12.5 16.151C13.1907 16.151 13.8531 15.8766 14.3414 15.3883C14.8298 14.8999 15.1042 14.2375 15.1042 13.5468C15.1042 12.8562 14.8298 12.1938 14.3414 11.7054C13.8531 11.217 13.1907 10.9427 12.5 10.9427V10.9427ZM12.5 5.72913C17.3052 5.72913 21.4542 9.01038 22.6052 13.6083C22.6556 13.8093 22.6241 14.0221 22.5177 14.1998C22.4112 14.3776 22.2385 14.5058 22.0375 14.5562C21.8365 14.6066 21.6237 14.5751 21.446 14.4687C21.2682 14.3622 21.14 14.1895 21.0896 13.9885C20.6073 12.0754 19.5002 10.3781 17.9438 9.16572C16.3874 7.9533 14.4708 7.29514 12.4979 7.29562C10.525 7.2961 8.60867 7.95518 7.05285 9.16836C5.49704 10.3815 4.39074 12.0794 3.90939 13.9927C3.88456 14.0923 3.84036 14.186 3.77931 14.2685C3.71826 14.351 3.64156 14.4207 3.55359 14.4735C3.46561 14.5264 3.36809 14.5614 3.26658 14.5766C3.16508 14.5917 3.06158 14.5868 2.96199 14.5619C2.8624 14.5371 2.76868 14.4929 2.68618 14.4319C2.60368 14.3708 2.534 14.2941 2.48114 14.2061C2.42828 14.1182 2.39326 14.0206 2.37809 13.9191C2.36292 13.8176 2.36789 13.7141 2.39272 13.6145C2.95763 11.3617 4.25902 9.36222 6.09022 7.93357C7.92142 6.50492 10.1774 5.72903 12.5 5.72913V5.72913Z" fill="#9F9F9F"/>
</svg>
