<svg width="25" height="25" viewBox="0 0 25 25" fill="none" xmlns="http://www.w3.org/2000/svg">
<path d="M2.31251 2.31246C2.1802 2.44474 2.09975 2.62011 2.0858 2.80668C2.07184 2.99326 2.1253 3.17864 2.23646 3.32913L2.31251 3.41663L6.51459 7.61976C4.46566 9.05583 3.00301 11.1823 2.3948 13.6093C2.3479 13.8091 2.3815 14.0194 2.48834 14.1946C2.59519 14.3698 2.76668 14.4959 2.96577 14.5458C3.16486 14.5956 3.37556 14.565 3.55232 14.4608C3.72908 14.3565 3.85772 14.1868 3.91042 13.9885C4.45095 11.8343 5.7822 9.96241 7.63959 8.74476L9.52501 10.6302C8.77188 11.4171 8.35687 12.4678 8.36888 13.557C8.3809 14.6462 8.81897 15.6874 9.58928 16.4576C10.3596 17.2277 11.4009 17.6656 12.4901 17.6774C13.5793 17.6893 14.6298 17.2741 15.4167 16.5208L21.5823 22.6875C21.7217 22.8272 21.9089 22.9091 22.1061 22.9165C22.3034 22.9239 22.4962 22.8564 22.6457 22.7275C22.7952 22.5985 22.8903 22.4178 22.912 22.2216C22.9337 22.0253 22.8803 21.8282 22.7625 21.6698L22.6865 21.5823L16.3188 15.2135L16.3198 15.2114L15.0698 13.9635L12.0802 10.9739H12.0823L9.0823 7.97705L9.08334 7.97496L7.90313 6.79788L3.41667 2.31246C3.27019 2.16616 3.07162 2.08398 2.86459 2.08398C2.65756 2.08398 2.45899 2.16616 2.31251 2.31246V2.31246ZM10.6292 11.7343L14.3115 15.4177C13.8203 15.892 13.1625 16.1545 12.4797 16.1486C11.7969 16.1427 11.1437 15.8688 10.6609 15.3859C10.1781 14.9031 9.90418 14.25 9.89825 13.5672C9.89232 12.8843 10.1548 12.2265 10.6292 11.7354V11.7343ZM12.5 5.72913C11.4583 5.72913 10.4479 5.8833 9.49063 6.17184L10.7792 7.45934C13.0079 7.01804 15.3209 7.45005 17.2401 8.66603C19.1593 9.88202 20.5378 11.789 21.0906 13.9927C21.1446 14.1895 21.2734 14.3573 21.4496 14.4604C21.6257 14.5634 21.8352 14.5935 22.0332 14.5441C22.2312 14.4947 22.402 14.3698 22.5091 14.1961C22.6162 14.0224 22.6511 13.8136 22.6063 13.6145C22.0414 11.3619 20.7402 9.36252 18.9092 7.93389C17.0782 6.50526 14.8224 5.72927 12.5 5.72913V5.72913ZM12.7031 9.38538L16.6625 13.3437C16.6113 12.3103 16.1777 11.3328 15.4459 10.6012C14.7142 9.86969 13.7366 9.43633 12.7031 9.38538V9.38538Z" fill="#9F9F9F"/>
</svg>
