<svg width="25" height="25" viewBox="0 0 25 25" fill="none" xmlns="http://www.w3.org/2000/svg">
<path d="M2.77778 25H22.2222C22.9589 25 23.6655 24.7366 24.1864 24.2678C24.7073 23.799 25 23.1631 25 22.5001V11.2505C25.001 11.086 24.966 10.923 24.8969 10.7707C24.8278 10.6184 24.7259 10.4799 24.5972 10.3631L13.4861 0.363476C13.2259 0.130672 12.8739 0 12.5069 0C12.14 0 11.788 0.130672 11.5278 0.363476L0.416666 10.3631C0.285433 10.4788 0.18103 10.6169 0.109507 10.7692C0.0379842 10.9216 0.000762847 11.0852 0 11.2505V22.5001C0 23.1631 0.292657 23.799 0.813591 24.2678C1.33453 24.7366 2.04106 25 2.77778 25ZM9.72221 22.5001V16.2503H15.2778V22.5001H9.72221ZM2.77778 11.763L12.5 3.01337L22.2222 11.763V22.5001H18.0555V16.2503C18.0555 15.5873 17.7629 14.9515 17.2419 14.4826C16.721 14.0138 16.0145 13.7504 15.2778 13.7504H9.72221C8.9855 13.7504 8.27896 14.0138 7.75803 14.4826C7.2371 14.9515 6.94444 15.5873 6.94444 16.2503V22.5001H2.77778V11.763Z" fill="#9F9F9F"/>
</svg>
