<svg width="29" height="29" viewBox="0 0 29 29" fill="none" xmlns="http://www.w3.org/2000/svg">
<path d="M14.6914 17.4076L18.3339 13.4867C18.7514 13.0459 18.7051 12.3732 18.2875 11.9555C17.8466 11.538 17.1739 11.5843 16.7562 12.0019L13.9027 15.0875L12.6035 13.6955C12.186 13.2546 11.5131 13.2315 11.0723 13.649C10.6314 14.0665 10.6083 14.7394 11.0258 15.1803L13.1137 17.4307C13.5314 17.8715 14.2739 17.8715 14.6914 17.4075L14.6914 17.4076Z" fill="#F69D93"/>
<path d="M23.9018 12.0253H23.1827C22.4866 7.94209 18.9139 4.83325 14.6451 4.83325C10.3763 4.83325 6.82668 7.94201 6.10748 12.0253H5.41144C4.43704 12.0253 3.625 12.8373 3.625 13.8117V16.8044C3.625 17.2917 3.81062 17.7323 4.15856 18.0805C4.50649 18.4052 4.94732 18.5909 5.41128 18.5909H7.01212C7.47608 18.5909 7.84732 18.2196 7.84732 17.7557V13.4869C7.84732 9.75165 10.8865 6.71245 14.6217 6.71245C18.357 6.71245 21.3961 9.75161 21.3961 13.4869V19.3101C21.3961 20.8413 20.1434 22.094 18.6122 22.094H17.0809C16.9649 21.6067 16.5474 21.2588 16.0136 21.2588L13.253 21.259C12.6265 21.259 12.1394 21.7694 12.1394 22.3725V23.1381C12.1394 23.7646 12.6498 24.2517 13.253 24.2517H16.0602C16.5706 24.2517 16.9882 23.8805 17.1275 23.4165H18.6588C20.9092 23.4165 22.7652 21.5838 22.7652 19.31V18.5676H23.9021C24.366 18.5676 24.83 18.3819 25.1548 18.0572C25.5027 17.7092 25.6883 17.2684 25.6883 16.7811L25.6882 13.8117C25.6882 12.8373 24.8994 12.0485 23.9017 12.0254L23.9018 12.0253Z" fill="#F69D93"/>
</svg>
