<svg width="20" height="20" viewBox="0 0 20 20" fill="none" xmlns="http://www.w3.org/2000/svg">
<path d="M9.71425 18.2857C14.4481 18.2857 18.2857 14.4481 18.2857 9.71425C18.2857 4.98038 14.4481 1.14282 9.71425 1.14282C4.98038 1.14282 1.14282 4.98038 1.14282 9.71425C1.14282 14.4481 4.98038 18.2857 9.71425 18.2857Z" fill="#4285F4"/>
<path d="M9.71425 1.14282C4.98083 1.14282 1.14282 4.98083 1.14282 9.71425C1.14282 14.4477 4.98083 18.2857 9.71425 18.2857C14.4477 18.2857 18.2857 14.4477 18.2857 9.71425C18.2857 4.98083 14.4477 1.14282 9.71425 1.14282ZM9.71425 16.8316C5.7844 16.8316 2.5969 13.6441 2.5969 9.71425C2.5969 5.7844 5.7844 2.5969 9.71425 2.5969C13.6441 2.5969 16.8316 5.7844 16.8316 9.71425C16.8316 13.6441 13.6441 16.8316 9.71425 16.8316Z" fill="white"/>
</svg>
