<svg width="29" height="29" viewBox="0 0 29 29" fill="none" xmlns="http://www.w3.org/2000/svg">
<path d="M20.5417 19.3333L25.375 14.4999M25.375 14.4999L20.5417 9.66659M25.375 14.4999H8.45833M15.7083 19.3333V20.5416C15.7083 21.503 15.3264 22.425 14.6466 23.1048C13.9668 23.7847 13.0447 24.1666 12.0833 24.1666H7.25C6.28859 24.1666 5.36656 23.7847 4.68674 23.1048C4.00692 22.425 3.625 21.503 3.625 20.5416V8.45825C3.625 7.49684 4.00692 6.57481 4.68674 5.89499C5.36656 5.21517 6.28859 4.83325 7.25 4.83325H12.0833C13.0447 4.83325 13.9668 5.21517 14.6466 5.89499C15.3264 6.57481 15.7083 7.49684 15.7083 8.45825V9.66659" stroke="#F69D93" stroke-width="2" stroke-linecap="round" stroke-linejoin="round"/>
</svg>
