<svg width="27" height="35" viewBox="0 0 27 35" fill="none" xmlns="http://www.w3.org/2000/svg">
<path d="M24.4485 19.6598L24.8476 19.9609L24.4485 19.6598L13.5 34.1699L2.55146 19.6598C1.27737 17.9712 0.806641 15.5827 0.806641 13.1934C0.806641 6.18301 6.48967 0.5 13.5 0.5C20.5103 0.5 26.1934 6.18301 26.1933 13.1934C26.1933 14.2556 26.0479 15.4944 25.752 16.6644C25.4546 17.8402 25.0146 18.9095 24.4485 19.6598ZM19.5521 13.1933C19.5521 9.85134 16.842 7.14129 13.5 7.14129C10.158 7.14129 7.44796 9.85134 7.44796 13.1934C7.44796 16.5354 10.158 19.2454 13.5 19.2454C16.842 19.2454 19.5521 16.5354 19.5521 13.1933Z" fill="#F69D93" stroke="white"/>
</svg>
