<svg width="25" height="25" viewBox="0 0 25 25" fill="none" xmlns="http://www.w3.org/2000/svg">
<path d="M5 5.68177C5 5.38039 5.1317 5.09135 5.36612 4.87824C5.60054 4.66513 5.91848 4.54541 6.25 4.54541H18.75C19.0815 4.54541 19.3995 4.66513 19.6339 4.87824C19.8683 5.09135 20 5.38039 20 5.68177C20 5.98316 19.8683 6.27219 19.6339 6.4853C19.3995 6.69841 19.0815 6.81814 18.75 6.81814H6.25C5.91848 6.81814 5.60054 6.69841 5.36612 6.4853C5.1317 6.27219 5 5.98316 5 5.68177ZM5 10.2272C5 9.92585 5.1317 9.63681 5.36612 9.4237C5.60054 9.21059 5.91848 9.09086 6.25 9.09086H18.75C19.0815 9.09086 19.3995 9.21059 19.6339 9.4237C19.8683 9.63681 20 9.92585 20 10.2272C20 10.5286 19.8683 10.8176 19.6339 11.0308C19.3995 11.2439 19.0815 11.3636 18.75 11.3636H6.25C5.91848 11.3636 5.60054 11.2439 5.36612 11.0308C5.1317 10.8176 5 10.5286 5 10.2272ZM6.25 13.6363C5.91848 13.6363 5.60054 13.756 5.36612 13.9692C5.1317 14.1823 5 14.4713 5 14.7727C5 15.0741 5.1317 15.3631 5.36612 15.5762C5.60054 15.7893 5.91848 15.909 6.25 15.909H18.75C19.0815 15.909 19.3995 15.7893 19.6339 15.5762C19.8683 15.3631 20 15.0741 20 14.7727C20 14.4713 19.8683 14.1823 19.6339 13.9692C19.3995 13.756 19.0815 13.6363 18.75 13.6363H6.25ZM5 19.3181C5 19.0168 5.1317 18.7277 5.36612 18.5146C5.60054 18.3015 5.91848 18.1818 6.25 18.1818H11.25C11.5815 18.1818 11.8995 18.3015 12.1339 18.5146C12.3683 18.7277 12.5 19.0168 12.5 19.3181C12.5 19.6195 12.3683 19.9086 12.1339 20.1217C11.8995 20.3348 11.5815 20.4545 11.25 20.4545H6.25C5.91848 20.4545 5.60054 20.3348 5.36612 20.1217C5.1317 19.9086 5 19.6195 5 19.3181Z" fill="#F69D93"/>
<path fill-rule="evenodd" clip-rule="evenodd" d="M0 3.40909C0 2.50494 0.395088 1.63783 1.09835 0.9985C1.80161 0.359171 2.75544 0 3.75 0H21.25C22.2446 0 23.1984 0.359171 23.9017 0.9985C24.6049 1.63783 25 2.50494 25 3.40909V21.5909C25 22.4951 24.6049 23.3622 23.9017 24.0015C23.1984 24.6408 22.2446 25 21.25 25H3.75C2.75544 25 1.80161 24.6408 1.09835 24.0015C0.395088 23.3622 0 22.4951 0 21.5909V3.40909ZM3.75 2.27273H21.25C21.5815 2.27273 21.8995 2.39245 22.1339 2.60556C22.3683 2.81867 22.5 3.10771 22.5 3.40909V21.5909C22.5 21.8923 22.3683 22.1813 22.1339 22.3944C21.8995 22.6075 21.5815 22.7273 21.25 22.7273H3.75C3.41848 22.7273 3.10054 22.6075 2.86612 22.3944C2.6317 22.1813 2.5 21.8923 2.5 21.5909V3.40909C2.5 3.10771 2.6317 2.81867 2.86612 2.60556C3.10054 2.39245 3.41848 2.27273 3.75 2.27273Z" fill="#F69D93"/>
</svg>
