<svg width="30" height="30" viewBox="0 0 30 30" fill="none" xmlns="http://www.w3.org/2000/svg">
<path d="M3.75 23.75C3.39583 23.75 3.09917 23.63 2.86 23.39C2.62 23.1508 2.5 22.8542 2.5 22.5C2.5 22.1458 2.62 21.8492 2.86 21.61C3.09917 21.37 3.39583 21.25 3.75 21.25H26.25C26.6042 21.25 26.9008 21.37 27.14 21.61C27.38 21.8492 27.5 22.1458 27.5 22.5C27.5 22.8542 27.38 23.1508 27.14 23.39C26.9008 23.63 26.6042 23.75 26.25 23.75H3.75ZM3.125 15.7187C2.89583 15.5937 2.75 15.4062 2.6875 15.1562C2.625 14.9062 2.65625 14.6667 2.78125 14.4375L3.375 13.375H2.1875C1.91667 13.375 1.6925 13.2863 1.515 13.1088C1.33833 12.9321 1.25 12.7083 1.25 12.4375C1.25 12.1667 1.33833 11.9425 1.515 11.765C1.6925 11.5883 1.91667 11.5 2.1875 11.5H3.375L2.78125 10.5C2.65625 10.2708 2.625 10.0312 2.6875 9.78125C2.75 9.53125 2.89583 9.34375 3.125 9.21875C3.35417 9.09375 3.59375 9.0625 3.84375 9.125C4.09375 9.1875 4.28125 9.33333 4.40625 9.5625L5 10.5625L5.59375 9.5625C5.71875 9.33333 5.90625 9.1875 6.15625 9.125C6.40625 9.0625 6.64583 9.09375 6.875 9.21875C7.10417 9.34375 7.25 9.53125 7.3125 9.78125C7.375 10.0312 7.34375 10.2708 7.21875 10.5L6.625 11.5H7.8125C8.08333 11.5 8.30708 11.5883 8.48375 11.765C8.66125 11.9425 8.75 12.1667 8.75 12.4375C8.75 12.7083 8.66125 12.9321 8.48375 13.1088C8.30708 13.2863 8.08333 13.375 7.8125 13.375H6.625L7.21875 14.4375C7.34375 14.6667 7.375 14.9062 7.3125 15.1562C7.25 15.4062 7.10417 15.5937 6.875 15.7187C6.64583 15.8437 6.40625 15.875 6.15625 15.8125C5.90625 15.75 5.71875 15.6042 5.59375 15.375L5 14.3125L4.40625 15.375C4.28125 15.6042 4.09375 15.75 3.84375 15.8125C3.59375 15.875 3.35417 15.8437 3.125 15.7187ZM13.125 15.7187C12.8958 15.5937 12.75 15.4062 12.6875 15.1562C12.625 14.9062 12.6562 14.6667 12.7812 14.4375L13.375 13.375H12.1875C11.9167 13.375 11.6929 13.2863 11.5163 13.1088C11.3388 12.9321 11.25 12.7083 11.25 12.4375C11.25 12.1667 11.3388 11.9425 11.5163 11.765C11.6929 11.5883 11.9167 11.5 12.1875 11.5H13.375L12.7812 10.5C12.6562 10.2708 12.625 10.0312 12.6875 9.78125C12.75 9.53125 12.8958 9.34375 13.125 9.21875C13.3542 9.09375 13.5938 9.0625 13.8438 9.125C14.0938 9.1875 14.2812 9.33333 14.4062 9.5625L15 10.5625L15.5938 9.5625C15.7188 9.33333 15.9062 9.1875 16.1562 9.125C16.4062 9.0625 16.6458 9.09375 16.875 9.21875C17.1042 9.34375 17.25 9.53125 17.3125 9.78125C17.375 10.0312 17.3438 10.2708 17.2188 10.5L16.625 11.5H17.8125C18.0833 11.5 18.3075 11.5883 18.485 11.765C18.6617 11.9425 18.75 12.1667 18.75 12.4375C18.75 12.7083 18.6617 12.9321 18.485 13.1088C18.3075 13.2863 18.0833 13.375 17.8125 13.375H16.625L17.2188 14.4375C17.3438 14.6667 17.375 14.9062 17.3125 15.1562C17.25 15.4062 17.1042 15.5937 16.875 15.7187C16.6458 15.8437 16.4062 15.875 16.1562 15.8125C15.9062 15.75 15.7188 15.6042 15.5938 15.375L15 14.3125L14.4062 15.375C14.2812 15.6042 14.0938 15.75 13.8438 15.8125C13.5938 15.875 13.3542 15.8437 13.125 15.7187ZM23.125 15.7187C22.8958 15.5937 22.75 15.4062 22.6875 15.1562C22.625 14.9062 22.6562 14.6667 22.7812 14.4375L23.375 13.375H22.1875C21.9167 13.375 21.6925 13.2863 21.515 13.1088C21.3383 12.9321 21.25 12.7083 21.25 12.4375C21.25 12.1667 21.3383 11.9425 21.515 11.765C21.6925 11.5883 21.9167 11.5 22.1875 11.5H23.375L22.7812 10.5C22.6562 10.2708 22.625 10.0312 22.6875 9.78125C22.75 9.53125 22.8958 9.34375 23.125 9.21875C23.3542 9.09375 23.5938 9.0625 23.8438 9.125C24.0938 9.1875 24.2812 9.33333 24.4062 9.5625L25 10.5625L25.5938 9.5625C25.7188 9.33333 25.9062 9.1875 26.1562 9.125C26.4062 9.0625 26.6458 9.09375 26.875 9.21875C27.1042 9.34375 27.25 9.53125 27.3125 9.78125C27.375 10.0312 27.3438 10.2708 27.2188 10.5L26.625 11.5H27.8125C28.0833 11.5 28.3075 11.5883 28.485 11.765C28.6617 11.9425 28.75 12.1667 28.75 12.4375C28.75 12.7083 28.6617 12.9321 28.485 13.1088C28.3075 13.2863 28.0833 13.375 27.8125 13.375H26.625L27.2188 14.4375C27.3438 14.6667 27.375 14.9062 27.3125 15.1562C27.25 15.4062 27.1042 15.5937 26.875 15.7187C26.6458 15.8437 26.4062 15.875 26.1562 15.8125C25.9062 15.75 25.7188 15.6042 25.5938 15.375L25 14.3125L24.4062 15.375C24.2812 15.6042 24.0938 15.75 23.8438 15.8125C23.5938 15.875 23.3542 15.8437 23.125 15.7187Z" fill="#9F9F9F"/>
</svg>
