<svg width="29" height="29" viewBox="0 0 29 29" fill="none" xmlns="http://www.w3.org/2000/svg">
<path d="M5.26689 13.6105L4.83331 12.8555L4.39973 13.6105L3.62215 14.9644L2.91751 14.5579L3.69606 13.2023L4.12624 12.4533H3.26248H1.70831V11.6408H3.26248H4.12917L3.69533 10.8905L2.91878 9.54749L3.62342 9.14096L4.40047 10.4848L4.83331 11.2334L5.26616 10.4848L6.0432 9.14096L6.74785 9.54749L5.9713 10.8905L5.53746 11.6408H6.40415H7.95831V12.4533H6.40415H5.54039L5.97057 13.2023L6.74912 14.5579L6.04447 14.9644L5.26689 13.6105ZM12.5842 14.5579L13.3627 13.2023L13.7929 12.4533H12.9291H11.375V11.6408H12.9291H13.7958L13.362 10.8905L12.5854 9.54749L13.2901 9.14096L14.0671 10.4848L14.5 11.2334L14.9328 10.4848L15.7099 9.14096L16.4145 9.54749L15.638 10.8905L15.2041 11.6408H16.0708H17.625V12.4533H16.0708H15.2071L15.6372 13.2023L16.4158 14.5579L15.7111 14.9644L14.9336 13.6105L14.5 12.8555L14.0664 13.6105L13.2888 14.9644L12.5842 14.5579ZM25.3039 13.2023L26.0825 14.5579L25.3778 14.9644L24.6002 13.6105L24.1666 12.8555L23.7331 13.6105L22.9555 14.9644L22.2508 14.5579L23.0294 13.2023L23.4596 12.4533H22.5958H21.0416V11.6408H22.5958H23.4625L23.0287 10.8905L22.2521 9.54749L22.9568 9.14096L23.7338 10.4848L24.1666 11.2334L24.5995 10.4848L25.3765 9.14096L26.0812 9.54749L25.3046 10.8905L24.8708 11.6408H25.7375H27.2916V12.4533H25.7375H24.8737L25.3039 13.2023ZM26.0833 21.0416V22.4583H2.91665V21.0416H26.0833Z" stroke="#F69D93"/>
</svg>
