<svg width="75" height="28" viewBox="0 0 75 28" fill="none" xmlns="http://www.w3.org/2000/svg">
<path d="M71.9286 16.7647V14.4106V9.70588H64.7857H60.025V7.35176H71.9286V2.64706H60.025H52.8821V7.35176V9.70588V14.4106H60.025H64.7857V16.7647H52.8821V21.4694H64.7857H71.9286V16.7647ZM73.8107 15.2929V22.9412C73.8107 23.0965 73.7464 23.2482 73.6357 23.3576C73.525 23.4671 73.3714 23.5306 73.2143 23.5306H65.475V24.7059H74.4036C74.5607 24.7059 74.7143 24.6424 74.825 24.5329C74.9357 24.4235 75 24.2718 75 24.1165V15.2929H73.8107ZM9.525 0H0.596429C0.439286 0 0.285714 0.0635294 0.175 0.172941C0.0642857 0.282353 0 0.434118 0 0.589412V9.41294H1.18929V1.76471C1.18929 1.60941 1.25357 1.45765 1.36429 1.34824C1.475 1.23882 1.62857 1.17529 1.78571 1.17529H9.525V0ZM17.1679 27.3529H21.9286V16.7647H17.1679V27.3529ZM21.3357 2.64706H10.025V7.35176H17.1679V14.4106H21.9286V3.23294C21.9286 3.07765 21.8643 2.92588 21.7536 2.81647C21.6429 2.70706 21.4893 2.64353 21.3321 2.64353L21.3357 2.64706ZM7.64643 2.64706H3.47857C3.32143 2.64706 3.16786 2.71059 3.05714 2.82C2.94643 2.92941 2.88214 3.08118 2.88214 3.23647V20.8835C2.88214 21.0388 2.94643 21.1906 3.05714 21.3C3.16786 21.4094 3.32143 21.4729 3.47857 21.4729H14.7893V16.7682H7.64643V2.65059V2.64706ZM10.0286 14.4106H14.7893V9.70588H10.0286V14.4106ZM11.2179 10.8812H13.6V13.2353H11.2179V10.8812ZM24.3143 2.64706V7.35176H38.6V9.70588H29.075H24.3143V14.4106V21.4694H29.075V14.4812L36.2179 21.4694H43.3607L35.9071 14.4106H38.5964H43.3571V9.70588V7.35176V2.64706H38.5964H24.3107H24.3143ZM45.7429 21.4694H50.5036V2.64706H45.7429V21.4694Z" fill="#989898"/>
</svg>
