<svg width="35" height="35" viewBox="0 0 35 35" fill="none" xmlns="http://www.w3.org/2000/svg">
<path d="M29.8958 9.47925H5.10409C4.29867 9.47925 3.64575 10.1322 3.64575 10.9376V26.9792C3.64575 27.7847 4.29867 28.4376 5.10409 28.4376H29.8958C30.7012 28.4376 31.3541 27.7847 31.3541 26.9792V10.9376C31.3541 10.1322 30.7012 9.47925 29.8958 9.47925Z" stroke="white" stroke-width="2.91667" stroke-linecap="round" stroke-linejoin="round"/>
<path d="M31.3541 13.1251V24.0626M23.3333 9.47925C23.3333 5.83341 20.7812 5.10425 19.6874 5.10425H9.1145C6.4895 5.10425 5.83325 7.19404 5.83325 8.23894V9.47925M18.2291 14.5834H31.3541V22.6042H18.2291V14.5834Z" stroke="white" stroke-width="2.91667" stroke-linecap="round" stroke-linejoin="round"/>
<path d="M24.427 19.6875C25.0311 19.6875 25.5208 19.1978 25.5208 18.5938C25.5208 17.9897 25.0311 17.5 24.427 17.5C23.8229 17.5 23.3333 17.9897 23.3333 18.5938C23.3333 19.1978 23.8229 19.6875 24.427 19.6875Z" fill="white"/>
</svg>
